<svg xmlns="http://www.w3.org/2000/svg" width="178" height="40" viewBox="0 0 178 40">
  <defs>
    <style>
      .cls-1 {
        fill: #049cdb;
      }

      .cls-1, .cls-2 {
        fill-rule: evenodd;
      }
    </style>
  </defs>
  <g id="Plan_de_travail_1" data-name="Plan de travail 1">
    <path id="tom" class="cls-1" d="M12.857,27.248q-3.417,0-3.417-3.667V15.79h5.125V11.082H9.44v-6H3.148v6H-0.727V15.79H3.148v7.833q0,4.167,2.146,6.208t6.813,2.042a17.739,17.739,0,0,0,2.417-.167l0.333-4.583a16.814,16.814,0,0,1-2,.125h0Zm14.625,4.625a11.941,11.941,0,0,0,5.708-1.312,9.205,9.205,0,0,0,3.792-3.708,11.429,11.429,0,0,0,1.333-5.646,11.431,11.431,0,0,0-1.333-5.646,9.079,9.079,0,0,0-3.792-3.687,12.1,12.1,0,0,0-5.708-1.292,12.1,12.1,0,0,0-5.708,1.292,9.071,9.071,0,0,0-3.792,3.688,11.424,11.424,0,0,0-1.333,5.646,11.423,11.423,0,0,0,1.333,5.646,9.2,9.2,0,0,0,3.792,3.708,11.939,11.939,0,0,0,5.708,1.313h0Zm0-4.792q-4.584,0-4.583-5.875t4.583-5.875a4.129,4.129,0,0,1,3.4,1.458,6.9,6.9,0,0,1,1.188,4.417q0,5.875-4.583,5.875h0Zm39.875-16.5A7.855,7.855,0,0,0,63.4,11.6a7.329,7.329,0,0,0-2.792,2.771q-1.542-3.791-6.083-3.792a7.884,7.884,0,0,0-3.687.833,6.4,6.4,0,0,0-2.562,2.417v-2.75H42.148V31.54h6.292V20.248a5.468,5.468,0,0,1,1-3.5,3.374,3.374,0,0,1,2.792-1.25,2.491,2.491,0,0,1,2.188.917,5.344,5.344,0,0,1,.646,3V31.54h6.292V20.248a5.468,5.468,0,0,1,1-3.5,3.374,3.374,0,0,1,2.792-1.25,2.491,2.491,0,0,1,2.188.917,5.344,5.344,0,0,1,.646,3V31.54h6.292V19.207q0-4.375-1.708-6.5a6.283,6.283,0,0,0-5.208-2.125h0Z"/>
    <path id="garet" class="cls-2" d="M93.148,11.082v2.875A6.356,6.356,0,0,0,90.5,11.478a8.256,8.256,0,0,0-3.854-.9,8.831,8.831,0,0,0-4.729,1.271,8.7,8.7,0,0,0-3.229,3.583,11.733,11.733,0,0,0-1.167,5.354,11.73,11.73,0,0,0,1.167,5.354,8.558,8.558,0,0,0,3.229,3.563,8.941,8.941,0,0,0,4.729,1.25,8.311,8.311,0,0,0,3.917-.917,6.176,6.176,0,0,0,2.625-2.5v2.25q0,4.875-5.167,4.875A16.293,16.293,0,0,1,80.148,32.5l-1.667,4.333a15.875,15.875,0,0,0,4.438,1.875,20.545,20.545,0,0,0,5.271.667q5.541,0,8.375-2.542t2.833-7.5V11.082h-6.25ZM88.482,26.165a4.341,4.341,0,0,1-3.458-1.437,5.8,5.8,0,0,1-1.25-3.937,5.866,5.866,0,0,1,1.25-3.979,4.341,4.341,0,0,1,3.458-1.437,4.279,4.279,0,0,1,3.438,1.438,5.934,5.934,0,0,1,1.229,3.979,5.848,5.848,0,0,1-1.229,3.958,4.308,4.308,0,0,1-3.437,1.417h0Zm24.832-15.583a17.519,17.519,0,0,0-4.771.729,17.09,17.09,0,0,0-4.312,1.813l1.667,4.208a16.2,16.2,0,0,1,3.5-1.5,11.881,11.881,0,0,1,3.333-.542,3.975,3.975,0,0,1,2.75.75,3.466,3.466,0,0,1,.792,2.583v0.75h-1.084a32.588,32.588,0,0,0-6.958.583,6.854,6.854,0,0,0-3.688,1.875,5.148,5.148,0,0,0-1.145,3.542,5.966,5.966,0,0,0,.979,3.333,6.6,6.6,0,0,0,2.666,2.333,8.4,8.4,0,0,0,3.771.833,6.4,6.4,0,0,0,3.417-.9,4.983,4.983,0,0,0,2.083-2.479V31.54h5.959V19.457q0-4.541-2.188-6.708t-6.771-2.167h0ZM112.189,27.54a2.665,2.665,0,0,1-1.937-.75,2.508,2.508,0,0,1-.771-1.875,1.96,1.96,0,0,1,1.354-1.958,14.252,14.252,0,0,1,4.729-.542h0.709v0.708a4.535,4.535,0,0,1-1.125,3.188,3.821,3.821,0,0,1-2.959,1.229h0Zm29.042-17-1.834.125q-4.833.334-6.375,3.875V11.082h-6.041V31.54h6.291V20.873a4.765,4.765,0,0,1,1.084-3.271,5.479,5.479,0,0,1,3.708-1.479l3.542-.375Zm20.458,10.417a10.9,10.9,0,0,0-2.521-7.583,8.725,8.725,0,0,0-6.813-2.792,10.045,10.045,0,0,0-5.208,1.354,9.464,9.464,0,0,0-3.583,3.771,11.566,11.566,0,0,0-1.292,5.542,10.253,10.253,0,0,0,2.979,7.771,11.285,11.285,0,0,0,8.146,2.854,14.475,14.475,0,0,0,4.312-.667,11.355,11.355,0,0,0,3.646-1.833l-1.666-4.208a10.131,10.131,0,0,1-2.855,1.479,9.874,9.874,0,0,1-3.145.521,5.635,5.635,0,0,1-3.73-1.1,5.263,5.263,0,0,1-1.6-3.562h13.334V20.957Zm-9.167-6.042a3.478,3.478,0,0,1,2.771,1.125,5.442,5.442,0,0,1,1.1,3.333h-8.042a5.708,5.708,0,0,1,1.313-3.312,3.7,3.7,0,0,1,2.854-1.146h0ZM176.4,27.248q-3.417,0-3.417-3.667V15.79h5.125V11.082H172.98v-6h-6.292v6h-3.875V15.79h3.875v7.833q0,4.167,2.146,6.208t6.813,2.042a17.733,17.733,0,0,0,2.416-.167l0.334-4.583a16.825,16.825,0,0,1-2,.125h0Z"/>
  </g>
</svg>
